<svg width="598" height="97" viewBox="0 0 598 97" fill="none" xmlns="http://www.w3.org/2000/svg">
<path d="M24.32 59.776H65.024L70.144 75.264H18.688L24.32 59.776ZM69.248 94.976L44.672 24.32L19.584 94.976H0L34.56 3.072H55.808L90.112 94.976H69.248Z" fill="#A54201"/>
<path d="M133.241 94.976H113.785V20.608H84.857V3.072H162.297V20.608H133.241V94.976ZM192.533 96.128C185.706 96.128 179.69 94.6773 174.485 91.776C169.365 88.7893 165.397 84.608 162.581 79.232C159.765 73.856 158.357 67.6267 158.357 60.544C158.357 53.7173 159.808 47.6587 162.709 42.368C165.61 37.0773 169.621 32.9387 174.741 29.952C179.861 26.88 185.706 25.344 192.277 25.344C197.653 25.344 202.517 26.368 206.869 28.416C211.306 30.3787 215.018 33.1947 218.005 36.864C220.992 40.5333 223.125 44.8 224.405 49.664C225.685 54.4427 225.898 59.6053 225.045 65.152H168.853V53.888H206.229C206.058 49.1093 204.65 45.3547 202.005 42.624C199.445 39.808 196.074 38.4 191.893 38.4C188.565 38.4 185.749 39.2533 183.445 40.96C181.141 42.6667 179.349 45.184 178.069 48.512C176.874 51.7547 176.277 55.7653 176.277 60.544C176.277 65.2373 176.874 69.2053 178.069 72.448C179.264 75.6907 181.056 78.1653 183.445 79.872C185.834 81.5787 188.736 82.432 192.149 82.432C196.074 82.432 199.317 81.4933 201.877 79.616C204.437 77.7387 206.229 75.136 207.253 71.808H224.917C222.954 79.488 219.157 85.4613 213.525 89.728C207.893 93.9947 200.896 96.128 192.533 96.128ZM253.474 61.824V94.976H235.682V26.624H252.066V39.808C254.626 35.456 258.338 32.0427 263.202 29.568C268.066 27.0933 273.229 25.856 278.69 25.856V44.288C273.741 43.9467 269.346 44.2027 265.506 45.056C261.751 45.824 258.807 47.5733 256.674 50.304C254.541 52.9493 253.474 56.7893 253.474 61.824ZM304.444 94.976H286.652V26.624H303.036V36.352C305.511 32.8533 308.412 30.1653 311.74 28.288C315.068 26.3253 318.993 25.344 323.516 25.344C328.209 25.344 332.263 26.4107 335.676 28.544C339.175 30.592 341.777 33.5787 343.484 37.504C346.215 33.7493 349.372 30.8053 352.956 28.672C356.54 26.4533 360.892 25.344 366.012 25.344C372.924 25.344 378.513 27.5627 382.78 32C387.047 36.352 389.18 42.624 389.18 50.816V94.976H371.516V56.448C371.516 51.584 370.492 47.8293 368.444 45.184C366.481 42.4533 363.537 41.088 359.612 41.088C357.308 41.088 355.175 41.728 353.212 43.008C351.249 44.2027 349.671 45.952 348.476 48.256C347.367 50.56 346.812 53.4187 346.812 56.832V94.976H329.148V56.448C329.148 51.584 328.124 47.8293 326.076 45.184C324.113 42.4533 321.169 41.088 317.244 41.088C314.855 41.088 312.679 41.728 310.716 43.008C308.753 44.2027 307.217 45.952 306.108 48.256C304.999 50.56 304.444 53.4187 304.444 56.832V94.976ZM420.914 94.976H403.122V26.624H420.914V94.976ZM423.73 10.752C423.73 13.7387 422.621 16.256 420.402 18.304C418.269 20.2667 415.41 21.248 411.826 21.248C408.327 21.248 405.469 20.2667 403.25 18.304C401.117 16.256 400.05 13.7387 400.05 10.752C400.05 7.59467 401.117 5.03467 403.25 3.072C405.469 1.024 408.327 0 411.826 0C415.41 0 418.269 1.024 420.402 3.072C422.621 5.03467 423.73 7.59467 423.73 10.752ZM453.259 57.728V94.976H435.467V26.624H451.851V36.352C454.411 32.9387 457.398 30.2507 460.811 28.288C464.31 26.3253 468.32 25.344 472.843 25.344C479.755 25.344 485.344 27.5627 489.611 32C493.878 36.352 496.011 42.624 496.011 50.816V94.976H478.347V56.832C478.347 51.712 477.323 47.8293 475.275 45.184C473.312 42.4533 470.326 41.088 466.315 41.088C463.926 41.088 461.707 41.728 459.659 43.008C457.696 44.2027 456.118 46.0373 454.923 48.512C453.814 50.9013 453.259 53.9733 453.259 57.728ZM550.766 94.976V86.528C548.547 89.6853 545.731 92.1173 542.318 93.824C538.905 95.4453 534.851 96.256 530.158 96.256C523.075 96.256 517.358 94.336 513.006 90.496C508.654 86.656 506.478 81.536 506.478 75.136C506.478 68.48 509.123 63.4027 514.414 59.904C519.705 56.4053 527.299 54.656 537.198 54.656C539.161 54.656 541.038 54.7413 542.83 54.912C544.622 54.9973 546.542 55.168 548.59 55.424V51.328C548.59 47.488 547.566 44.5013 545.518 42.368C543.47 40.2347 540.569 39.168 536.814 39.168C532.974 39.168 529.945 40.2347 527.726 42.368C525.507 44.5013 524.227 47.488 523.886 51.328H507.886C508.227 46.0373 509.635 41.472 512.11 37.632C514.67 33.7067 518.041 30.6773 522.222 28.544C526.489 26.4107 531.353 25.344 536.814 25.344C545.774 25.344 552.729 27.6907 557.678 32.384C562.713 37.0773 565.23 43.6053 565.23 51.968V94.976H550.766ZM523.246 74.624C523.246 77.44 524.185 79.7013 526.062 81.408C528.025 83.1147 530.67 83.968 533.998 83.968C538.521 83.968 542.062 82.816 544.622 80.512C547.267 78.1227 548.59 74.9653 548.59 71.04V66.176C546.542 65.8347 544.707 65.6213 543.086 65.536C541.465 65.3653 539.886 65.28 538.35 65.28C533.401 65.28 529.646 66.048 527.086 67.584C524.526 69.12 523.246 71.4667 523.246 74.624ZM597.202 94.976H579.282V3.072H597.202V94.976Z" fill="black"/>
</svg>
